<svg xmlns="http://www.w3.org/2000/svg" xmlns:xlink="http://www.w3.org/1999/xlink" style="display:none;">
  <symbol id="tick" viewBox="0 0 23 16">
    <path d="M22.925 1.325L21.825 0.225C21.525 -0.075 20.925 -0.075 20.625 0.225L8.725 12.125L2.525 5.925C2.225 5.625 1.625 5.625 1.325 5.925L0.225 7.025C-0.075 7.325 -0.075 7.925 0.225 8.225L8.025 16.025C8.225 16.225 8.425 16.225 8.625 16.225C8.825 16.225 9.025 16.125 9.225 16.025L22.725 2.525C23.225 2.225 23.225 1.725 22.925 1.325Z"
      fill="black"/>
  </symbol>
  <symbol id="html-academy" viewBox="0 0 27 35">
    <path d="M13.6 0H13.5L0 1.4V26.1L13.5 34.1L26.9 26.1V1.4L13.6 0ZM25 12.1L13.5 5.3V5.2H13.4L13.3 5.1V5.2L1.9 12.1V3.1L13.4 1.9L25 3.1V12.1ZM13.4 6.8L24.9 13.5L20.4 16.1L13.3 11.9V13.3L19.2 16.8L18.3 17.3L13.3 14.3V15.7L17.1 18L16.3 18.5L13.3 16.7V18.1L15.2 19.2L13.4 20.3L2 13.6L13.4 6.8ZM1.9 15.1L13.3 21.9V22.9L5.4 18.2V19.6L13.4 24.4V25.5L5.4 20.8V22.2L13.4 27L21.5 22.1V16.9L24.9 14.9V24.9L13.4 31.8L1.9 25V15.1Z"
    fill="currentColor"/>
  </symbol>
</svg>
